<svg width="61" height="63" viewBox="0 0 61 63" fill="none" xmlns="http://www.w3.org/2000/svg">
<path fill-rule="evenodd" clip-rule="evenodd" d="M59.9638 19.3114C60.3995 20.3718 59.807 21.5515 58.7199 21.9156C57.6329 22.2797 56.464 21.6897 56.0174 20.6339C54.04 15.9581 50.7776 11.9204 46.5898 9.00138C41.8328 5.6855 36.1346 3.98924 30.3386 4.16364C24.5426 4.33805 18.9567 6.37385 14.4077 9.96975C9.85863 13.5657 6.58816 18.5306 5.08027 24.1297C3.57238 29.7289 3.90721 35.6647 6.03519 41.0588C8.16318 46.4529 11.9712 51.0185 16.8958 54.0801C21.8204 57.1416 27.5998 58.5363 33.3786 58.0578C38.4659 57.6366 43.3148 55.7833 47.373 52.733C48.2893 52.0442 49.5965 52.121 50.3536 52.9817C51.1108 53.8425 51.0307 55.1603 50.1214 55.8584C45.3883 59.4927 39.6973 61.7002 33.7212 62.1951C27.0538 62.7471 20.3857 61.138 14.704 57.6057C9.0222 54.0734 4.6286 48.8058 2.17342 42.5823C-0.281765 36.3588 -0.668073 29.5103 1.07167 23.0502C2.81141 16.5901 6.58475 10.8618 11.8333 6.71296C17.0818 2.56415 23.5265 0.215321 30.2137 0.0140996C36.901 -0.187122 43.4753 1.76995 48.9638 5.59569C53.8831 9.02474 57.6958 13.7917 59.9638 19.3114ZM15 32L31 48L47 32L44.2 29.15L33 40.35V16H29V40.35L17.8 29.15L15 32Z" fill="white" fill-opacity="0.25"/>
</svg>
