<svg width="27" height="27" viewBox="0 0 27 27" fill="none" xmlns="http://www.w3.org/2000/svg">
<path d="M25.7402 8.14597V18.8897C25.7402 20.6705 25.0328 22.3785 23.7735 23.6378C22.5142 24.897 20.8063 25.6045 19.0254 25.6045H8.28171C6.50083 25.6045 4.79289 24.897 3.53362 23.6378C2.27435 22.3785 1.56689 20.6705 1.56689 18.8897V8.14597C1.56689 6.36509 2.27435 4.65715 3.53362 3.39788C4.79289 2.1386 6.50083 1.43115 8.28171 1.43115H19.0254C20.8063 1.43115 22.5142 2.1386 23.7735 3.39788C25.0328 4.65715 25.7402 6.36509 25.7402 8.14597Z" stroke="#0047FF" stroke-width="2.01444" stroke-linecap="round" stroke-linejoin="round"/>
<path d="M12.3104 25.6045V13.5178C12.3104 10.5794 12.9819 8.146 17.6823 8.146M9.62451 14.8608H17.6823" stroke="#0047FF" stroke-width="2.01444" stroke-linecap="round" stroke-linejoin="round"/>
</svg>
