<svg width="49" height="46" viewBox="0 0 49 46" fill="none" xmlns="http://www.w3.org/2000/svg">
<path d="M39.2 30.3502H34.2999V35.2503H39.2M39.2 20.55H34.2999V25.4501H39.2M44.1002 40.1505H24.4997V35.2503H29.3998V30.3502H24.4997V25.4501H29.3998V20.55H24.4997V15.6498H44.1002M19.5995 10.7497H14.6994V5.84959H19.5995M19.5995 20.55H14.6994V15.6498H19.5995M19.5995 30.3502H14.6994V25.4501H19.5995M19.5995 40.1505H14.6994V35.2503H19.5995M9.79927 10.7497H4.89915V5.84959H9.79927M9.79927 20.55H4.89915V15.6498H9.79927M9.79927 30.3502H4.89915V25.4501H9.79927M9.79927 40.1505H4.89915V35.2503H9.79927M24.4997 10.7497V0.949463H-0.000976562V45.0506H49.0003V10.7497H24.4997Z" fill="#C9C9C9"/>
</svg>
