<svg width="25" height="25" viewBox="0 0 25 25" fill="none" xmlns="http://www.w3.org/2000/svg">
<path d="M9.37226 7.92781C10.2801 7.32124 11.3473 6.99748 12.4391 6.99747C13.9028 6.99899 15.306 7.58109 16.341 8.61604C17.3759 9.65099 17.958 11.0542 17.9596 12.5179C17.9595 13.6097 17.6358 14.677 17.0292 15.5848C16.4226 16.4926 15.5605 17.2001 14.5518 17.618C13.543 18.0358 12.4331 18.1451 11.3622 17.9321C10.2914 17.7191 9.30776 17.1933 8.53573 16.4213C7.76369 15.6493 7.23793 14.6656 7.02492 13.5948C6.81192 12.5239 6.92124 11.414 7.33906 10.4053C7.75689 9.39656 8.46444 8.5344 9.37226 7.92781ZM10.3408 15.6583C10.9619 16.0734 11.6922 16.2949 12.4392 16.2949C13.4409 16.2949 14.4017 15.897 15.11 15.1886C15.8183 14.4803 16.2163 13.5196 16.2163 12.5178C16.2163 11.7708 15.9948 11.0405 15.5797 10.4194C15.1647 9.79824 14.5748 9.31413 13.8846 9.02825C13.1945 8.74237 12.435 8.66757 11.7023 8.81331C10.9696 8.95905 10.2966 9.31878 9.7684 9.84702C9.24017 10.3753 8.88044 11.0483 8.7347 11.7809C8.58896 12.5136 8.66376 13.2731 8.94963 13.9632C9.23551 14.6534 9.71963 15.2433 10.3408 15.6583ZM2.30188 2.38049C3.51112 1.17125 5.15068 0.491091 6.86081 0.489261L18.0176 0.489261C19.7277 0.491099 21.3673 1.17125 22.5765 2.38049C23.7858 3.58973 24.4659 5.22929 24.4678 6.93942V18.0962C24.4659 19.8063 23.7858 21.4459 22.5765 22.6551C21.3673 23.8644 19.7277 24.5445 18.0176 24.5464H6.86081C5.15068 24.5445 3.51112 23.8644 2.30188 22.6551C1.09263 21.4459 0.412477 19.8063 0.410648 18.0962L0.410648 6.93939C0.412486 5.22927 1.09264 3.58972 2.30188 2.38049ZM21.3459 21.4245C22.2286 20.5418 22.7245 19.3446 22.7245 18.0963V6.93936C22.7245 5.69103 22.2286 4.49383 21.3459 3.61113C20.4632 2.72843 19.266 2.23253 18.0177 2.23253H6.86074C5.61242 2.23253 4.41522 2.72843 3.53251 3.61113C2.64981 4.49383 2.15392 5.69103 2.15392 6.93936V18.0963C2.15392 19.3446 2.64981 20.5418 3.53251 21.4245C4.41522 22.3072 5.61242 22.8031 6.86074 22.8031H18.0177C19.266 22.8031 20.4632 22.3072 21.3459 21.4245ZM19.819 6.47448C19.819 6.73882 19.7407 6.99722 19.5938 7.21701C19.4469 7.43679 19.2382 7.6081 18.994 7.70926C18.7498 7.81041 18.4811 7.83688 18.2218 7.78531C17.9625 7.73374 17.7244 7.60645 17.5375 7.41954C17.3506 7.23262 17.2233 6.99448 17.1717 6.73522C17.1201 6.47597 17.1466 6.20724 17.2478 5.96303C17.3489 5.71881 17.5202 5.51008 17.74 5.36322C17.9598 5.21636 18.2182 5.13798 18.4825 5.13798C18.837 5.13798 19.1769 5.27879 19.4276 5.52943C19.6782 5.78008 19.819 6.12002 19.819 6.47448Z" fill="#0047FF" stroke="#0047FF" stroke-width="0.116218"/>
</svg>
