<svg width="25" height="25" viewBox="0 0 25 25" fill="none" xmlns="http://www.w3.org/2000/svg">
<path d="M22.452 22.8031H22.5101V22.745V2.29064V2.23253H22.452H1.99767H1.93956V2.29064V22.745V22.8031H1.99767H22.452ZM12.1439 10.4647L12.1631 10.547L12.2331 10.4996C12.8533 10.0788 13.5764 9.83496 14.3248 9.79419C15.0731 9.75341 15.8184 9.91726 16.4807 10.2681C17.143 10.619 17.6971 11.1436 18.0837 11.7857C18.4703 12.4277 18.6747 13.163 18.6749 13.9124V18.0963C18.6749 18.3274 18.5831 18.5492 18.4196 18.7126C18.2562 18.8761 18.0345 18.9679 17.8033 18.9679C17.5721 18.9679 17.3504 18.8761 17.187 18.7126C17.0235 18.5492 16.9317 18.3274 16.9317 18.0963V13.9124C16.9317 13.2806 16.6807 12.6746 16.2339 12.2278C15.7871 11.781 15.1811 11.53 14.5492 11.53C13.9173 11.53 13.3113 11.781 12.8645 12.2278C12.4177 12.6746 12.1667 13.2806 12.1667 13.9124V18.0963C12.1667 18.3274 12.0749 18.5492 11.9114 18.7126C11.748 18.8761 11.5263 18.9679 11.2951 18.9679C11.0639 18.9679 10.8422 18.8761 10.6788 18.7126C10.5153 18.5492 10.4235 18.3274 10.4235 18.0963L10.4235 10.6586C10.4235 10.6586 10.4235 10.6585 10.4235 10.6584C10.4246 10.445 10.504 10.2394 10.6466 10.0806C10.7893 9.92176 10.9853 9.82081 11.1975 9.79689C11.4096 9.77297 11.6232 9.82776 11.7976 9.95085C11.9721 10.0739 12.0953 10.2568 12.1439 10.4647ZM1.99767 0.489261H22.452C22.9298 0.489261 23.388 0.679049 23.7258 1.01687C24.0636 1.3547 24.2534 1.81288 24.2534 2.29064V22.745C24.2534 23.2228 24.0636 23.6809 23.7258 24.0188C23.388 24.3566 22.9298 24.5464 22.452 24.5464H1.99767C1.51992 24.5464 1.06173 24.3566 0.723904 24.0188C0.38608 23.6809 0.196293 23.2228 0.196293 22.745V2.29064C0.196293 1.81288 0.38608 1.3547 0.723904 1.01687C1.06173 0.679049 1.51992 0.489261 1.99767 0.489261ZM8.44777 10.6583V18.0963C8.44777 18.3274 8.35593 18.5492 8.19247 18.7126C8.02901 18.8761 7.8073 18.9679 7.57613 18.9679C7.34496 18.9679 7.12326 18.8761 6.95979 18.7126C6.79633 18.5492 6.7045 18.3274 6.7045 18.0963V10.6583C6.7045 10.4272 6.79633 10.2055 6.95979 10.042C7.12326 9.87853 7.34496 9.7867 7.57613 9.7867C7.8073 9.7867 8.02901 9.87853 8.19247 10.042C8.35593 10.2055 8.44777 10.4272 8.44777 10.6583ZM8.91264 7.40423C8.91264 7.66856 8.83425 7.92696 8.6874 8.14675C8.54054 8.36654 8.33181 8.53784 8.08759 8.639C7.84338 8.74016 7.57465 8.76662 7.31539 8.71505C7.05613 8.66348 6.81799 8.53619 6.63108 8.34928C6.44416 8.16237 6.31687 7.92422 6.26531 7.66497C6.21374 7.40571 6.2402 7.13698 6.34136 6.89277C6.44252 6.64856 6.61382 6.43982 6.83361 6.29296C7.0534 6.14611 7.3118 6.06772 7.57613 6.06772C7.93059 6.06772 8.27054 6.20853 8.52118 6.45918C8.77183 6.70982 8.91264 7.04976 8.91264 7.40423Z" fill="#0047FF" stroke="#0047FF" stroke-width="0.116218"/>
</svg>
