<svg width="154" height="58" viewBox="0 0 154 58" fill="none" xmlns="http://www.w3.org/2000/svg">
<path d="M103.338 13.9321C104.22 13.3478 104.467 12.1545 103.825 11.3132C100.484 6.93407 95.9466 3.59502 90.7418 1.7131C84.9348 -0.386521 78.6062 -0.560804 72.6924 1.21604C66.7787 2.99289 61.5942 6.62645 57.9061 11.579C54.2181 16.5315 52.2224 22.5398 52.2146 28.7147C52.2068 34.8896 54.1872 40.9029 57.8627 45.8647C61.5382 50.8266 66.7136 54.4733 72.6228 56.2651C78.532 58.0569 84.861 57.8986 90.6733 55.8137C95.8829 53.945 100.429 50.6174 103.781 46.2467C104.425 45.4071 104.181 44.2132 103.301 43.6267C102.42 43.0401 101.236 43.2839 100.584 44.1169C97.6946 47.8058 93.8144 50.6163 89.3796 52.2071C84.3419 54.0142 78.8563 54.1513 73.7346 52.5983C68.6129 51.0453 64.1273 47.8846 60.9416 43.584C57.756 39.2834 56.0395 34.0715 56.0463 28.7195C56.053 23.3676 57.7827 18.16 60.9792 13.8675C64.1758 9.57499 68.6694 6.42567 73.795 4.88562C78.9206 3.34557 84.4058 3.49662 89.4389 5.31643C93.8697 6.91846 97.7428 9.73879 100.623 13.4349C101.273 14.2696 102.456 14.5163 103.338 13.9321Z" fill="#017CD6"/>
<path fill-rule="evenodd" clip-rule="evenodd" d="M46.5715 19.0161C48.297 19.0161 49.0688 21.1813 47.7322 22.2727L40.2958 28.3451L47.7322 34.4174C49.0688 35.5088 48.297 37.674 46.5715 37.674C46.1485 37.674 45.7385 37.5279 45.4108 37.2603L37.3944 30.7143L29.3779 37.2603C29.0503 37.5279 28.6402 37.674 28.2172 37.674C26.4917 37.674 25.72 35.5088 27.0565 34.4174L34.4929 28.3451L27.0565 22.2727C25.72 21.1813 26.4917 19.0161 28.2172 19.0161C28.6402 19.0161 29.0503 19.1623 29.3779 19.4298L37.3944 25.9758L45.4108 19.4298C45.7385 19.1623 46.1485 19.0161 46.5715 19.0161Z" fill="#898989"/>
<path fill-rule="evenodd" clip-rule="evenodd" d="M18.6579 20.9462C18.6579 19.8803 19.5221 19.0161 20.588 19.0161C21.654 19.0161 22.5182 19.8803 22.5182 20.9462V35.7439C22.5182 36.8099 21.654 37.674 20.588 37.674L1.93963 37.674C1.93646 37.674 1.9333 37.6741 1.93013 37.6741C0.864148 37.6741 0 36.8099 0 35.7439V20.9463C0 19.8803 0.864148 19.0161 1.93013 19.0161C2.99611 19.0161 3.86026 19.8803 3.86026 20.9463V34.4572H18.6579V20.9462Z" fill="#898989"/>
<circle cx="150.695" cy="22.4722" r="3.30472" fill="#017CD6"/>
<path fill-rule="evenodd" clip-rule="evenodd" d="M71.0516 19.1675C70.139 19.1675 69.3992 19.9073 69.3992 20.8198C69.3992 21.7324 70.139 22.4722 71.0516 22.4722H87.9056V27.0988H71.0515C70.139 27.0988 69.3992 27.8386 69.3992 28.7512C69.3992 29.6637 70.139 30.4035 71.0515 30.4035H87.9056V34.3692H71.0515C70.139 34.3692 69.3992 35.109 69.3992 36.0216C69.3992 36.9341 70.139 37.6739 71.0515 37.6739H89.558C90.4705 37.6739 91.2103 36.9341 91.2103 36.0216V28.7512V20.8306L91.2104 20.8198C91.2104 19.9073 90.4706 19.1675 89.558 19.1675H71.0516Z" fill="#898989"/>
<path fill-rule="evenodd" clip-rule="evenodd" d="M117.615 36.3546C117.46 37.1075 116.794 37.6739 115.996 37.6739L97.4893 37.6739C96.6337 37.6739 95.9301 37.0237 95.8454 36.1905C95.8398 36.135 95.8369 36.0786 95.8369 36.0216L95.8369 28.092L95.8369 28.0902L95.8369 28.0885L95.8369 20.8198C95.8369 19.9073 96.5767 19.1675 97.4893 19.1675L115.996 19.1675C116.908 19.1675 117.648 19.9073 117.648 20.8198C117.648 21.7324 116.908 22.4722 115.996 22.4722L99.1416 22.4722L99.1416 26.4379L115.993 26.4379C115.994 26.4379 115.995 26.4379 115.996 26.4379C116.053 26.4379 116.109 26.4408 116.165 26.4464C116.998 26.531 117.648 27.2347 117.648 28.0902L117.648 36.0216C117.648 36.1356 117.637 36.247 117.615 36.3546ZM114.343 29.7426L99.1416 29.7426L99.1416 34.3692L114.343 34.3692V29.7426Z" fill="#898989"/>
<rect x="121.614" y="19.1675" width="3.30472" height="18.5064" rx="1.65236" fill="#898989"/>
<rect x="140.12" y="19.1675" width="3.30472" height="18.5064" rx="1.65236" fill="#898989"/>
<rect x="121.614" y="22.4722" width="3.30472" height="21.8112" rx="1.65236" transform="rotate(-90 121.614 22.4722)" fill="#898989"/>
<rect x="121.614" y="37.6738" width="3.30472" height="21.8112" rx="1.65236" transform="rotate(-90 121.614 37.6738)" fill="#898989"/>
</svg>
